<?xml version="1.0" ?><!-- Uploaded to: SVG Repo, www.svgrepo.com, Generator: SVG Repo Mixer Tools -->
<svg width="800px" height="800px" viewBox="0 0 28 28" fill="none" xmlns="http://www.w3.org/2000/svg"><path clip-rule="evenodd" d="M14 21C16.7614 21 19 18.7614 19 16C19 13.2386 16.7614 11 14 11C11.2386 11 9 13.2386 9 16C9 18.7614 11.2386 21 14 21ZM14 19C15.6569 19 17 17.6569 17 16C17 14.3431 15.6569 13 14 13C12.3431 13 11 14.3431 11 16C11 17.6569 12.3431 19 14 19Z" fill="#000000" fill-rule="evenodd"/><path clip-rule="evenodd" d="M20 7V3C20 2.44772 19.5523 2 19 2H9C8.44772 2 8 2.44772 8 3V7H3C1.89543 7 1 7.89543 1 9V24C1 25.1046 1.89543 26 3 26H25C26.1046 26 27 25.1046 27 24V9C27 7.89543 26.1046 7 25 7H20ZM10 7H18V4.8C18 4.35817 17.6418 4 17.2 4H10.8C10.3582 4 10 4.35817 10 4.8V7ZM25 9.8C25 9.35817 24.6418 9 24.2 9H3.8C3.35817 9 3 9.35817 3 9.8V23.2C3 23.6418 3.35817 24 3.8 24H24.2C24.6418 24 25 23.6418 25 23.2V9.8Z" fill="#000000" fill-rule="evenodd"/></svg>