<?xml version="1.0" ?><!-- Uploaded to: SVG Repo, www.svgrepo.com, Generator: SVG Repo Mixer Tools -->
<svg width="800px" height="800px" viewBox="0 0 28 28" fill="none" xmlns="http://www.w3.org/2000/svg"><path clip-rule="evenodd" d="M5.5 2C4.5 2 4 2.94772 4 3.5V24.5C4 25.5 5 26 5.5 26H22.5C23.0523 26 24 25.5 24 24.5V10C24 9.5 24 9 23.5 8.5L17.5 2.5C17 2 16.5 2 16.1716 2H5.5ZM6 5C6 4.44772 6.44772 4 7 4H15V9.5C15 10.0523 15.4477 10.5 16 10.5H22V23C22 23.5523 21.5523 24 21 24H7C6.44772 24 6 23.5523 6 23V5ZM20.6716 8.5L17 4.82843V8.5H20.6716Z" fill="#000000" fill-rule="evenodd"/></svg>